<svg width="800" height="800" viewBox="0 0 800 800" fill="none" xmlns="http://www.w3.org/2000/svg">
<path d="M209.325 156.958C197.846 303.025 232.05 584.667 251.841 664C265.191 713.825 355.971 729.05 426.233 670.267M426.25 670.292C517.933 584.762 520.941 445.437 615.579 109.125M615.541 109.1C622.9 81.6333 604.287 94.9542 604.287 94.9542C579.775 109.108 582.083 111.2 578.725 114.558M578.75 114.558C574.05 119.258 564.512 120.142 564.512 120.142C558.212 120.142 553.596 126.65 553.596 126.65M553.583 126.65C499.612 180.621 451.525 414.887 414.575 524.05C405.658 557.312 379.866 606.75 379.866 606.75C366.779 571.858 364.529 221.362 364.529 221.362" stroke="#337681" stroke-width="50" stroke-miterlimit="15" stroke-linecap="round" stroke-linejoin="round"/>
<path d="M364.541 221.363C364.541 199.696 366.429 180.379 366.429 180.379C368.254 92.3625 313.008 106.613 272.433 109.183C219.391 123.396 209.325 148.296 209.325 156.958" stroke="#337681" stroke-width="50" stroke-miterlimit="15" stroke-linecap="round" stroke-linejoin="round"/>
</svg>
